<?xml version="1.0" encoding="utf-8"?>
<!-- Generator: Adobe Illustrator 18.1.0, SVG Export Plug-In . SVG Version: 6.00 Build 0)  -->
<svg version="1.1" id="Layer_2" xmlns="http://www.w3.org/2000/svg" xmlns:xlink="http://www.w3.org/1999/xlink" x="0px" y="0px"
	 viewBox="0 642.8 612.2 134.3" enable-background="new 0 642.8 612.2 134.3" xml:space="preserve">
<g>
	<path fill="#414042" d="M80.1,672.6h-4.9V670h12.9v2.6h-4.9v14.5H80v-14.5H80.1z"/>
	<path fill="#414042" d="M89.7,669h3.2v7.4l0,0c0.4-0.5,0.9-1.1,1.6-1.5c0.7-0.4,1.3-0.5,2.1-0.5c2.1,0,4.4,1.5,4.4,5.4v7.3h-3.2v-7
		c0-1.7-0.7-3.2-2.4-3.2c-1.2,0-2.1,0.8-2.5,1.7c-0.1,0.3-0.1,0.7-0.1,0.9v7.4h-3.2v-18h0.1V669z"/>
	<path fill="#414042" d="M106.5,681.7c0.1,2.2,1.8,3.2,3.8,3.2c1.5,0,2.5-0.3,3.4-0.5l0.4,2.1c-1.1,0.4-2.5,0.8-4.4,0.8
		c-4,0-6.3-2.5-6.3-6.2c0-3.4,2.1-6.6,6.1-6.6c4,0,5.3,3.3,5.3,6.1c0,0.5,0,1.1-0.1,1.3h-8.2C106.5,681.9,106.5,681.7,106.5,681.7z
		 M111.9,679.6c0-1.2-0.5-3-2.5-3c-2,0-2.8,1.7-2.9,3H111.9z"/>
</g>
<g>
	<polygon fill="#FDB913" points="57.5,746.8 57.5,731.9 0,731.9 0,767.7 42.3,734.5 	"/>
	<path fill="#FFFFFF" d="M48.9,683.7c-0.3-0.7-0.7-1.3-0.9-1.5c-0.5-0.5-1.2-0.9-2-1.2c0-0.3,0.1-1.1,0-1.2
		c-1.1-0.7-2.2-0.9-2.5-1.6s-0.1-1.2-0.1-1.2c0.4-0.3,0.8-0.7,0.8-1.2c0-0.5-0.4-1.1-0.8-1.2l-0.5-11.8l-0.1-0.3l-0.1,0.1L42,674.4
		c-0.5,0.3-0.8,0.7-0.8,1.2c0,0.5,0.3,0.9,0.8,1.2c0,0,0.1,0.7-0.1,1.2c-0.1,0.5-1.5,0.9-2.5,1.6c-0.1,0.1-0.1,0.9,0,1.2
		c-0.8,0.3-1.5,0.7-2,1.2c-0.3,0.3-0.7,0.9-0.9,1.5c-1.8,4-6.2,11.5-9.2,11.5c-1.3,0-3,0-4.1,0v3.3h3.4v2.4l0,0l0,0l0,0l0,0
		c0,0,0.9,0.1,1.2,0.9c0.1,0.3,0.1,0.8,0.1,1.1v0.3l0,0l0,0v9.5h-1.3v3.3H22v2.1c0,0,1.8,0.3,2.4,1.8c0.3,1.1,0.3,2.6,0.3,2.6v7H0
		v2.5h57.5v-37C52.5,692.3,50.6,687.5,48.9,683.7z"/>
	<g>
		<path fill="#0076C0" d="M0,642.9v86.5h24.4v-7c0,0,0-1.6-0.3-2.6c-0.5-1.7-2.4-1.8-2.4-1.8V716h4.6v-3.3h1.3v-9.5l0,0l0,0v-0.3
			c0-0.3,0-0.7-0.1-1.1c-0.3-0.8-1.1-0.9-1.2-0.9l0,0l0,0l0,0l0,0v-2.4H23v-3.2c0.9,0,2.8,0,4.1,0c3,0,7.4-7.5,9.2-11.5
			c0.3-0.7,0.7-1.3,0.9-1.5c0.5-0.5,1.2-0.9,2-1.2c0-0.3-0.1-1.1,0-1.2c1.1-0.7,2.2-1.1,2.5-1.6c0.1-0.5,0.1-1.2,0.1-1.2
			c-0.4-0.3-0.8-0.7-0.8-1.2c0-0.5,0.4-1.1,0.8-1.2l0.5-11.8l0.1-0.1l0.1,0.1l0.5,11.8c0.5,0.3,0.8,0.7,0.8,1.2
			c0,0.5-0.3,0.9-0.8,1.2c0,0-0.1,0.5,0.1,1.2c0.3,0.7,1.5,0.9,2.5,1.6c0.1,0.1,0.1,0.9,0,1.2c0.8,0.3,1.5,0.7,2,1.2
			c0.3,0.3,0.7,0.9,0.9,1.5c1.7,3.8,3.6,8.6,8.7,11.2v-52.1H0V642.9z"/>
		<g>
			<path fill="#0076C0" d="M34.9,712.2v0.3h5.8v-7.8C37.5,705.5,34.9,708,34.9,712.2z"/>
			<path fill="#0076C0" d="M44,704.7v7.8h5.8v-0.3C49.8,708,47.2,705.5,44,704.7z"/>
			<rect x="34.9" y="715.8" fill="#0076C0" width="5.8" height="13.6"/>
			<rect x="44" y="715.8" fill="#0076C0" width="5.8" height="13.6"/>
		</g>
	</g>
</g>
<g>
	<path fill="#414042" d="M101.7,728.4c-1.5,0.7-4.8,1.6-9,1.6c-11.1,0-17.8-6.9-17.8-17.6c0-11.5,8.1-18.4,18.6-18.4
		c4.2,0,7.1,0.8,8.5,1.5l-1.3,5c-1.7-0.7-4-1.3-6.9-1.3c-7.1,0-12.2,4.5-12.2,12.8c0,7.7,4.5,12.6,12.2,12.6c2.5,0,5.3-0.5,6.9-1.2
		L101.7,728.4z"/>
	<path fill="#414042" d="M105.7,692.5h6.3v15.1h0.1c0.8-1.2,1.8-2.1,3.2-2.9c1.3-0.7,2.8-1.2,4.4-1.2c4.2,0,8.9,2.9,8.9,11v14.8
		h-6.3v-14.1c0-3.6-1.3-6.5-4.9-6.5c-2.5,0-4.2,1.7-5,3.6c-0.3,0.5-0.3,1.2-0.3,1.8v15.1h-6.3L105.7,692.5L105.7,692.5z"/>
	<path fill="#414042" d="M134.1,712.2c0-3.4,0-5.9-0.3-8.1h5.4l0.3,4.8h0.1c1.2-3.6,4.2-5.3,6.9-5.3c0.7,0,0.9,0,1.5,0.1v5.9
		c-0.5-0.1-1.2-0.1-1.8-0.1c-3,0-5.2,1.8-5.7,4.8c-0.1,0.5-0.1,1.2-0.1,1.8v13.1H134v-17H134.1L134.1,712.2z"/>
	<path fill="#414042" d="M154.5,700.6c-2.1,0-3.6-1.6-3.6-3.4c0-2,1.5-3.4,3.6-3.4c2.1,0,3.6,1.5,3.6,3.4
		C158,699,156.7,700.6,154.5,700.6L154.5,700.6z M151.3,729.5v-25.2h6.3v25.2H151.3z"/>
	<path fill="#414042" d="M163,723.6c1.5,0.9,4.1,1.8,6.5,1.8c2.8,0,4.1-1.2,4.1-2.9c0-1.7-1.1-2.5-4.1-3.7c-4.9-1.7-6.9-4.4-6.9-7.4
		c0-4.5,3.7-7.8,9.5-7.8c2.8,0,5.3,0.7,6.7,1.5l-1.3,4.5c-1.1-0.7-3-1.5-5.3-1.5c-2.3,0-3.6,1.2-3.6,2.6c0,1.6,1.2,2.4,4.4,3.6
		c4.6,1.6,6.6,4,6.7,7.7c0,4.6-3.6,7.9-10.3,7.9c-3,0-5.8-0.7-7.7-1.7L163,723.6z"/>
	<path fill="#414042" d="M191.1,697.7v6.5h6.1v4.8h-6.1v11.1c0,3,0.8,4.6,3.3,4.6c1.2,0,1.7,0,2.5-0.3l0.1,4.8
		c-0.9,0.4-2.6,0.7-4.6,0.7c-2.4,0-4.2-0.8-5.4-2.1c-1.5-1.5-2-3.8-2-7.1v-11.6h-3.6v-4.8h3.6v-4.9L191.1,697.7z"/>
</g>
<g>
	<path fill="#414042" d="M218.1,694.5v14h14.8v-14h6.3v34.9h-6.3V714h-14.8v15.3h-6.3v-34.7H218.1L218.1,694.5z"/>
	<path fill="#414042" d="M255.4,730c-7.1,0-12.6-4.9-12.6-12.9c0-8.3,5.4-13.3,13.1-13.3c7.5,0,12.6,5.3,12.6,12.9
		C268.2,725.9,261.7,730,255.4,730L255.4,730z M255.5,725.4c3.6,0,6.2-3.6,6.2-8.6c0-4-1.7-8.5-6.1-8.5c-4.5,0-6.3,4.4-6.3,8.6
		C249.3,721.7,251.7,725.4,255.5,725.4L255.5,725.4z"/>
	<path fill="#414042" d="M271.3,723.6c1.5,0.9,4.1,1.8,6.5,1.8c2.8,0,4.1-1.2,4.1-2.9c0-1.7-1.1-2.5-4.1-3.7
		c-4.9-1.7-6.9-4.4-6.9-7.4c0-4.5,3.7-7.8,9.5-7.8c2.8,0,5.3,0.7,6.7,1.5l-1.3,4.5c-1.1-0.7-3-1.5-5.3-1.5c-2.2,0-3.6,1.2-3.6,2.6
		c0,1.6,1.2,2.4,4.4,3.6c4.6,1.6,6.6,4,6.7,7.7c0,4.6-3.6,7.9-10.3,7.9c-3,0-5.8-0.7-7.7-1.7L271.3,723.6z"/>
	<path fill="#414042" d="M291.1,712.6c0-3.3-0.1-5.9-0.3-8.3h5.5l0.3,3.8h0.1c1.8-2.9,4.8-4.5,8.6-4.5c5.8,0,10.6,5,10.6,12.8
		c0,9.1-5.7,13.5-11.5,13.5c-3.2,0-5.8-1.3-7.1-3.3h-0.1v13.1h-6.3v-27.1H291.1z M297.5,718.9c0,0.7,0,1.2,0.1,1.7
		c0.7,2.6,2.9,4.5,5.7,4.5c4.1,0,6.5-3.3,6.5-8.3c0-4.5-2.1-8.1-6.2-8.1c-2.6,0-5,1.8-5.7,4.8c-0.1,0.5-0.3,1.1-0.3,1.6v3.8H297.5z"
		/>
	<path fill="#414042" d="M322.6,700.6c-2.1,0-3.6-1.6-3.6-3.4c0-2,1.5-3.4,3.6-3.4s3.6,1.5,3.6,3.4
		C326.3,699,324.9,700.6,322.6,700.6L322.6,700.6z M319.6,729.5v-25.2h6.3v25.2H319.6z"/>
	<path fill="#414042" d="M338.1,697.7v6.5h6.1v4.8h-6.1v11.1c0,3,0.8,4.6,3.3,4.6c1.2,0,1.7,0,2.5-0.3l0.1,4.8
		c-0.9,0.4-2.6,0.7-4.6,0.7c-2.4,0-4.2-0.8-5.4-2.1c-1.5-1.5-2-3.8-2-7.1v-11.6h-3.6v-4.8h3.6v-4.9L338.1,697.7z"/>
	<path fill="#414042" d="M366.7,723.4c0,2.2,0.1,4.5,0.4,6.1h-5.7l-0.5-2.8h-0.1c-1.5,2-4.1,3.3-7.4,3.3c-5,0-7.9-3.7-7.9-7.5
		c0-6.3,5.7-9.5,14.9-9.5v-0.4c0-1.7-0.7-4.4-5.2-4.4c-2.5,0-5,0.8-6.7,1.8l-1.2-4.1c1.8-1.2,5.2-2.2,9.1-2.2
		c8.1,0,10.4,5.2,10.4,10.7L366.7,723.4L366.7,723.4z M360.5,717.1c-4.5,0-8.9,0.9-8.9,4.8c0,2.5,1.6,3.6,3.6,3.6
		c2.6,0,4.4-1.7,5-3.4c0.1-0.5,0.1-0.9,0.1-1.5v-3.4L360.5,717.1L360.5,717.1z"/>
	<path fill="#414042" d="M371,692.5h6.3v36.7H371V692.5z"/>
	<path fill="#414042" d="M391.3,694.9c2.4-0.4,5.4-0.7,9.8-0.7c4.6,0,8.1,0.9,10.3,2.9c2.1,1.7,3.4,4.5,3.4,7.7
		c0,3.3-1.1,5.9-2.9,7.8c-2.6,2.5-6.5,3.8-11,3.8c-1.2,0-2.2,0-3-0.3v13.3h-6.3v-34.5H391.3z M397.7,711.2c0.8,0.3,1.8,0.3,3,0.3
		c4.8,0,7.7-2.4,7.7-6.5c0-3.8-2.6-5.9-7.1-5.9c-1.7,0-3,0.1-3.7,0.3v11.9L397.7,711.2L397.7,711.2z"/>
	<path fill="#414042" d="M418,692.5h6.3v15.1h0.1c0.8-1.2,1.8-2.1,3.2-2.9c1.3-0.7,2.8-1.2,4.4-1.2c4.2,0,8.9,2.9,8.9,11v14.8h-6.3
		v-14.1c0-3.6-1.3-6.5-4.9-6.5c-2.5,0-4.2,1.7-5,3.6c-0.3,0.5-0.3,1.2-0.3,1.8v15.1h-6.3v-36.7H418z"/>
	<path fill="#414042" d="M448.8,704.2l4.5,13.5c0.5,1.6,1.1,3.4,1.5,4.9h0.1c0.4-1.5,0.8-3.3,1.3-4.9l4-13.5h6.7l-6.3,17.2
		c-3.4,9.4-5.8,13.6-8.7,16.3c-2.5,2.1-5.2,3-6.6,3.2l-1.5-5.3c1.1-0.3,2.4-0.8,3.7-1.7c1.2-0.8,2.6-2.2,3.6-4
		c0.3-0.5,0.4-0.8,0.4-1.2c0-0.3,0-0.7-0.3-1.2l-9.2-23.1h6.9v-0.2H448.8z"/>
	<path fill="#414042" d="M467.8,723.6c1.5,0.9,4.1,1.8,6.5,1.8c2.8,0,4.1-1.2,4.1-2.9c0-1.7-1.1-2.5-4.1-3.7
		c-4.9-1.7-6.9-4.4-6.9-7.4c0-4.5,3.7-7.8,9.5-7.8c2.8,0,5.3,0.7,6.7,1.5l-1.3,4.5c-1.1-0.7-3-1.5-5.3-1.5c-2.2,0-3.6,1.2-3.6,2.6
		c0,1.6,1.2,2.4,4.4,3.6c4.6,1.6,6.6,4,6.7,7.7c0,4.6-3.6,7.9-10.3,7.9c-3,0-5.8-0.7-7.7-1.7L467.8,723.6z"/>
	<path fill="#414042" d="M490.8,700.6c-2.1,0-3.6-1.6-3.6-3.4c0-2,1.5-3.4,3.6-3.4s3.6,1.5,3.6,3.4
		C494.5,699,493.1,700.6,490.8,700.6L490.8,700.6z M487.6,729.5v-25.2h6.3v25.2H487.6z"/>
	<path fill="#414042" d="M517.5,728.7c-1.3,0.7-4,1.3-7.1,1.3c-7.8,0-12.9-5-12.9-12.8c0-7.5,5.2-13.3,14-13.3
		c2.4,0,4.8,0.5,6.2,1.2l-1.2,4.8c-1.1-0.5-2.5-0.9-4.8-0.9c-4.9,0-7.8,3.6-7.7,8.2c0,5.2,3.3,8.1,7.7,8.1c2.1,0,3.8-0.5,5-0.9
		L517.5,728.7z"/>
	<path fill="#414042" d="M523.3,700.6c-2.1,0-3.6-1.6-3.6-3.4c0-2,1.5-3.4,3.6-3.4c2.1,0,3.6,1.5,3.6,3.4
		C527,699,525.6,700.6,523.3,700.6L523.3,700.6z M520.1,729.5v-25.2h6.3v25.2H520.1z"/>
	<path fill="#414042" d="M551.1,723.4c0,2.2,0.1,4.5,0.4,6.1h-5.7l-0.5-2.8h-0.2c-1.5,2-4.1,3.3-7.4,3.3c-5,0-7.9-3.7-7.9-7.5
		c0-6.3,5.7-9.5,14.9-9.5v-0.4c0-1.7-0.7-4.4-5.2-4.4c-2.5,0-5,0.8-6.7,1.8l-1.2-4.1c1.8-1.2,5.2-2.2,9.1-2.2
		c8.1,0,10.4,5.2,10.4,10.7L551.1,723.4L551.1,723.4z M544.8,717.1c-4.5,0-8.9,0.9-8.9,4.8c0,2.5,1.6,3.6,3.6,3.6
		c2.6,0,4.4-1.7,5-3.4c0.1-0.5,0.1-0.9,0.1-1.5v-3.4L544.8,717.1L544.8,717.1z"/>
	<path fill="#414042" d="M555.8,711.7c0-2.9-0.1-5.3-0.3-7.5h5.5l0.3,3.8h0.1c1.2-2,3.8-4.4,8.1-4.4c4.4,0,9,2.9,9,10.8v15h-6.3
		v-14.3c0-3.6-1.3-6.3-4.8-6.3c-2.5,0-4.2,1.8-5,3.7c-0.3,0.5-0.3,1.3-0.3,2v14.8h-6.3V711.7z"/>
	<path fill="#414042" d="M583.2,723.6c1.5,0.9,4.1,1.8,6.5,1.8c2.8,0,4.1-1.2,4.1-2.9c0-1.7-1.1-2.5-4.1-3.7
		c-4.9-1.7-6.9-4.4-6.9-7.4c0-4.5,3.7-7.8,9.5-7.8c2.8,0,5.3,0.7,6.7,1.5l-1.3,4.5c-1.1-0.7-3-1.5-5.3-1.5c-2.2,0-3.6,1.2-3.6,2.6
		c0,1.6,1.2,2.4,4.4,3.6c4.6,1.6,6.6,4,6.7,7.7c0,4.6-3.6,7.9-10.3,7.9c-3,0-5.8-0.7-7.7-1.7L583.2,723.6z"/>
</g>
<g>
	<path fill="#414042" d="M602.1,693.5h-2v-0.7h4.9v0.7h-2v5.8h-0.8v-5.8H602.1z"/>
	<path fill="#414042" d="M611.2,696.4c0-0.9-0.1-2-0.1-2.8l0,0c-0.3,0.8-0.5,1.6-0.8,2.5l-1.2,3.2h-0.7l-1.1-3.2
		c-0.3-0.9-0.5-1.7-0.8-2.5l0,0c0,0.8-0.1,2-0.1,2.9l-0.1,2.8h-0.8l0.4-6.6h1.1l1.1,3.2c0.3,0.8,0.5,1.6,0.7,2.2l0,0
		c0.1-0.7,0.4-1.5,0.7-2.2l1.2-3.2h1.1l0.4,6.6h-0.8L611.2,696.4z"/>
</g>
<g>
	<path fill="#414042" d="M81.4,757.4h-5v-1.9h12.3v1.8h-5v14.8h-2.1v-14.8h-0.2V757.4z"/>
	<path fill="#414042" d="M90.1,754.7h2.1v7.4l0,0c0.4-0.7,0.9-1.2,1.6-1.6c0.7-0.4,1.5-0.7,2.2-0.7c1.6,0,4.1,0.9,4.1,5.2v7.1H98
		v-6.9c0-1.8-0.7-3.6-2.8-3.6c-1.5,0-2.5,0.9-2.9,2.1c-0.1,0.3-0.1,0.7-0.1,1.1v7.1h-2.1V754.7z"/>
	<path fill="#414042" d="M104.8,766.6c0,2.9,1.8,4.1,4.1,4.1c1.6,0,2.5-0.3,3.3-0.7l0.4,1.6c-0.8,0.4-2.1,0.8-4,0.8
		c-3.7,0-5.8-2.4-5.8-5.9c0-3.5,2.1-6.5,5.5-6.5c3.8,0,4.9,3.4,4.9,5.5c0,0.4,0,0.8-0.1,1.1H104.8L104.8,766.6z M111.1,765
		c0-1.3-0.5-3.6-3-3.6c-2.2,0-3.2,2-3.3,3.6H111.1z"/>
	<path fill="#414042" d="M132.4,771.6c-0.8,0.4-2.4,0.8-4.4,0.8c-4.6,0-8.2-2.9-8.2-8.3c0-5.2,3.6-8.7,8.6-8.7c2,0,3.3,0.4,4,0.7
		l-0.5,1.7c-0.8-0.4-2-0.7-3.3-0.7c-3.8,0-6.5,2.5-6.5,6.9c0,4.1,2.4,6.6,6.3,6.6c1.3,0,2.6-0.3,3.6-0.7L132.4,771.6z"/>
	<path fill="#414042" d="M134.9,754.7h2.1v7.4l0,0c0.4-0.7,0.9-1.2,1.6-1.6c0.7-0.4,1.5-0.7,2.2-0.7c1.6,0,4.1,0.9,4.1,5.2v7.1h-2.1
		v-6.9c0-1.8-0.7-3.6-2.8-3.6c-1.5,0-2.5,0.9-2.9,2.1c-0.1,0.3-0.1,0.7-0.1,1.1v7.1h-2.1V754.7z"/>
	<path fill="#414042" d="M148.4,764c0-1.5,0-2.6-0.1-3.7h1.8l0.1,2.4h0.1c0.5-1.6,1.8-2.6,3.3-2.6c0.3,0,0.4,0,0.5,0v2
		c-0.3,0-0.4,0-0.8,0c-1.6,0-2.6,1.2-2.9,2.8c0,0.3-0.1,0.7-0.1,1.1v6.3h-2.1v-8.2L148.4,764L148.4,764z"/>
	<path fill="#414042" d="M157.4,758.3c-0.8,0-1.3-0.7-1.3-1.3c0-0.8,0.5-1.3,1.3-1.3c0.8,0,1.3,0.5,1.3,1.3
		C158.8,757.6,158.3,758.3,157.4,758.3L157.4,758.3z M156.4,772.2v-11.9h2.1v11.9H156.4z"/>
	<path fill="#414042" d="M161.7,769.9c0.7,0.4,1.8,0.8,2.9,0.8c1.6,0,2.2-0.8,2.2-1.7c0-1.1-0.7-1.6-2.2-2.1c-2.1-0.8-3.2-2-3.2-3.3
		c0-2,1.6-3.4,4.1-3.4c1.2,0,2.2,0.3,2.9,0.8l-0.5,1.6c-0.5-0.3-1.3-0.7-2.4-0.7c-1.3,0-2,0.8-2,1.6c0,0.9,0.7,1.5,2.2,2
		c2,0.8,3.2,1.8,3.2,3.6c0,2.1-1.6,3.6-4.4,3.6c-1.3,0-2.5-0.4-3.3-0.8L161.7,769.9z"/>
	<path fill="#414042" d="M174.1,757.4v2.9h3v1.6h-3v6.3c0,1.5,0.4,2.2,1.6,2.2c0.5,0,0.9,0,1.2-0.1l0.1,1.6c-0.4,0.1-1.1,0.3-2,0.3
		c-1.1,0-1.8-0.4-2.4-0.9c-0.5-0.7-0.8-1.7-0.8-3.2v-6.5H170V760h1.8v-2L174.1,757.4z"/>
	<path fill="#414042" d="M186.8,755.5v6.9h8.1v-6.9h2.1V772h-2.1v-7.8h-8.1v7.8h-2.1v-16.5H186.8z"/>
	<path fill="#414042" d="M205.3,772.4c-3.2,0-5.7-2.4-5.7-6.1c0-4,2.6-6.3,5.9-6.3c3.4,0,5.7,2.5,5.7,6.1
		C211.3,770.4,208.2,772.4,205.3,772.4L205.3,772.4z M205.5,770.8c2.1,0,3.6-2,3.6-4.6c0-2-1.1-4.5-3.6-4.5s-3.7,2.4-3.7,4.6
		C201.9,768.8,203.3,770.8,205.5,770.8L205.5,770.8z"/>
	<path fill="#414042" d="M213.5,769.9c0.7,0.4,1.8,0.8,2.9,0.8c1.6,0,2.2-0.8,2.2-1.7c0-1.1-0.7-1.6-2.2-2.1c-2.1-0.8-3.2-2-3.2-3.3
		c0-2,1.6-3.4,4.1-3.4c1.2,0,2.2,0.3,2.9,0.8l-0.5,1.6c-0.5-0.3-1.3-0.7-2.4-0.7c-1.3,0-2,0.8-2,1.6c0,0.9,0.7,1.5,2.2,2
		c2,0.8,3.2,1.8,3.2,3.6c0,2.1-1.6,3.6-4.4,3.6c-1.3,0-2.5-0.4-3.3-0.8L213.5,769.9z"/>
	<path fill="#414042" d="M223.4,764.1c0-1.6,0-2.8-0.1-3.8h2l0.1,2l0,0c0.9-1.5,2.2-2.2,4.2-2.2c2.9,0,5,2.4,5,6.1
		c0,4.2-2.6,6.3-5.4,6.3c-1.6,0-2.9-0.7-3.7-1.8l0,0v6.5h-2.1V764.1L223.4,764.1z M225.5,767.3c0,0.3,0,0.7,0.1,0.9
		c0.4,1.5,1.7,2.5,3.2,2.5c2.2,0,3.6-1.8,3.6-4.6c0-2.4-1.2-4.4-3.6-4.4c-1.5,0-2.9,1.1-3.3,2.6c0,0.3-0.1,0.5-0.1,0.9v2h0.1V767.3z
		"/>
	<path fill="#414042" d="M238.2,758.3c-0.8,0-1.3-0.7-1.3-1.3c0-0.8,0.5-1.3,1.3-1.3c0.8,0,1.3,0.5,1.3,1.3
		C239.7,757.6,239.1,758.3,238.2,758.3L238.2,758.3z M237.3,772.2v-11.9h2.1v11.9H237.3z"/>
	<path fill="#414042" d="M245.5,757.4v2.9h3v1.6h-3v6.3c0,1.5,0.4,2.2,1.6,2.2c0.5,0,0.9,0,1.2-0.1l0.1,1.6c-0.4,0.1-1.1,0.3-2,0.3
		c-1.1,0-1.8-0.4-2.4-0.9c-0.5-0.7-0.8-1.7-0.8-3.2v-6.5h-1.8V760h1.8v-2L245.5,757.4z"/>
	<path fill="#414042" d="M259.2,769.2c0,1.1,0,2,0.1,2.9h-2l-0.1-1.5h-0.1c-0.7,0.9-2,1.7-3.7,1.7c-2.4,0-3.7-1.7-3.7-3.4
		c0-2.9,2.5-4.5,7.1-4.4v-0.3c0-0.9-0.3-2.8-2.6-2.8c-1.2,0-2.2,0.3-3.2,0.9l-0.5-1.5c0.9-0.7,2.4-1.1,4-1.1c3.7,0,4.5,2.5,4.5,4.9
		v4.4h0.2V769.2z M257.1,766.1c-2.4,0-5,0.4-5,2.6c0,1.5,0.9,2.1,2,2.1c1.6,0,2.6-0.9,2.9-2c0.1-0.3,0.1-0.5,0.1-0.7V766.1z"/>
	<path fill="#414042" d="M262.5,754.7h2.1v17.4h-2.1V754.7z"/>
	<path fill="#414042" d="M275.5,755.5v6.9h8.1v-6.9h2.1V772h-2.1v-7.8h-8.1v7.8h-2.1v-16.5H275.5z"/>
	<path fill="#414042" d="M290.4,766.6c0,2.9,1.8,4.1,4.1,4.1c1.6,0,2.5-0.3,3.3-0.7l0.4,1.6c-0.8,0.4-2.1,0.8-4,0.8
		c-3.7,0-5.8-2.4-5.8-5.9c0-3.5,2.1-6.5,5.5-6.5c3.8,0,4.9,3.4,4.9,5.5c0,0.4,0,0.8-0.1,1.1H290.4L290.4,766.6z M296.6,765
		c0-1.3-0.5-3.6-3-3.6c-2.2,0-3.2,2-3.3,3.6H296.6z"/>
	<path fill="#414042" d="M309.8,769.2c0,1.1,0,2,0.1,2.9h-2l-0.1-1.5h-0.1c-0.7,0.9-2,1.7-3.7,1.7c-2.4,0-3.7-1.7-3.7-3.4
		c0-2.9,2.5-4.5,7.1-4.4v-0.3c0-0.9-0.3-2.8-2.6-2.8c-1.2,0-2.2,0.3-3.2,0.9l-0.5-1.5c0.9-0.7,2.4-1.1,4-1.1c3.7,0,4.5,2.5,4.5,4.9
		v4.4h0.2V769.2z M307.7,766.1c-2.4,0-5,0.4-5,2.6c0,1.5,0.9,2.1,2,2.1c1.6,0,2.6-0.9,2.9-2c0.1-0.3,0.1-0.5,0.1-0.7V766.1z"/>
	<path fill="#414042" d="M313.1,754.7h2.1v17.4h-2.1V754.7z"/>
	<path fill="#414042" d="M321.3,757.4v2.9h3v1.6h-3v6.3c0,1.5,0.4,2.2,1.6,2.2c0.5,0,0.9,0,1.2-0.1l0.1,1.6c-0.4,0.1-1.1,0.3-2,0.3
		c-1.1,0-1.8-0.4-2.4-0.9c-0.5-0.7-0.8-1.7-0.8-3.2v-6.5h-1.8V760h1.8v-2L321.3,757.4z"/>
	<path fill="#414042" d="M326.7,754.7h2.1v7.4l0,0c0.4-0.7,0.9-1.2,1.6-1.6c0.7-0.4,1.5-0.7,2.2-0.7c1.6,0,4.1,0.9,4.1,5.2v7.1h-2.1
		v-6.9c0-1.8-0.7-3.6-2.8-3.6c-1.5,0-2.5,0.9-2.9,2.1c-0.1,0.3-0.1,0.7-0.1,1.1v7.1h-2.1L326.7,754.7L326.7,754.7z"/>
	<path fill="#414042" d="M345.3,772.2v-16.5h2.4l5.3,8.3c1.2,2,2.2,3.7,2.9,5.4h0.1c-0.1-2.2-0.3-4.2-0.3-6.7v-7h2v16.5h-2.1
		l-5.3-8.5c-1.2-1.8-2.2-3.7-3-5.5h-0.1c0.1,2.1,0.1,4.1,0.1,6.9v7.1H345.3L345.3,772.2z"/>
	<path fill="#414042" d="M362.5,766.6c0,2.9,1.8,4.1,4.1,4.1c1.6,0,2.5-0.3,3.3-0.7l0.4,1.6c-0.8,0.4-2.1,0.8-4,0.8
		c-3.7,0-5.8-2.4-5.8-5.9c0-3.5,2.1-6.5,5.5-6.5c3.8,0,4.9,3.4,4.9,5.5c0,0.4,0,0.8-0.1,1.1H362.5L362.5,766.6z M368.9,765
		c0-1.3-0.5-3.6-3-3.6c-2.2,0-3.2,2-3.3,3.6H368.9z"/>
	<path fill="#414042" d="M376.1,757.4v2.9h3v1.6h-3v6.3c0,1.5,0.4,2.2,1.6,2.2c0.5,0,0.9,0,1.2-0.1l0.1,1.6c-0.4,0.1-1.1,0.3-2,0.3
		c-1.1,0-1.8-0.4-2.4-0.9c-0.5-0.7-0.8-1.7-0.8-3.2v-6.5H372V760h1.8v-2L376.1,757.4z"/>
	<path fill="#414042" d="M382.6,760.3l1.6,6.1c0.3,1.3,0.7,2.6,0.9,3.8h0.1c0.3-1.2,0.7-2.5,1.1-3.8l2-6.1h1.8l1.8,5.9
		c0.4,1.5,0.8,2.6,1.1,3.8h0.1c0.1-1.2,0.5-2.5,0.9-3.8l1.7-5.9h2.1l-3.8,11.9h-2l-1.8-5.7c-0.4-1.3-0.8-2.5-1.1-4l0,0
		c-0.3,1.5-0.7,2.6-1.1,4l-2,5.7h-2l-3.6-11.9H382.6z"/>
	<path fill="#414042" d="M404.3,772.4c-3.2,0-5.7-2.4-5.7-6.1c0-4,2.6-6.3,5.9-6.3c3.4,0,5.7,2.5,5.7,6.1
		C410.1,770.4,407,772.4,404.3,772.4L404.3,772.4z M404.3,770.8c2.1,0,3.6-2,3.6-4.6c0-2-1.1-4.5-3.6-4.5c-2.5,0-3.7,2.4-3.7,4.6
		C400.7,768.8,402.2,770.8,404.3,770.8L404.3,770.8z"/>
	<path fill="#414042" d="M412.7,764c0-1.5,0-2.6-0.1-3.7h1.8l0.1,2.4h0.1c0.5-1.6,1.8-2.6,3.3-2.6c0.3,0,0.4,0,0.5,0v2
		c-0.3,0-0.4,0-0.8,0c-1.6,0-2.6,1.2-2.9,2.8c0,0.3-0.1,0.7-0.1,1.1v6.3h-2.1v-8.2L412.7,764L412.7,764z"/>
	<path fill="#414042" d="M422.9,765.7L422.9,765.7c0.4-0.4,0.8-0.9,1.1-1.3l3.6-4.1h2.6l-4.6,4.9l5.3,7h-2.6l-4.2-5.7l-1.1,1.2v4.5
		h-2.1v-17.4h2.1v11L422.9,765.7L422.9,765.7z"/>
</g>
</svg>
